<svg xmlns="http://www.w3.org/2000/svg" xmlns:xlink="http://www.w3.org/1999/xlink" version="1.1" id="Layer_1" x="0px" y="0px" viewBox="0 0 532.2 81.4" style="enable-background:new 0 0 532.2 81.4;" xml:space="preserve">
<style type="text/css">
	.st0{fill:#FFFFFF;}
	.st1{fill:#1D1D1B;}
</style>
<title>Asset 5</title>
<g>
	<path class="st0" d="M140.8,24.4c0,1.2,0,2.4,0.1,3.6c0,1.2,0.1,2.4,0.2,3.6H141c-0.4-0.8-1-1.5-1.5-2.3s-1.1-1.6-1.7-2.3   L121.6,6.3h-4.5V39h5V22c0-1.5,0-2.9-0.1-4.4c0-1.5-0.1-2.9-0.2-4.4h0.1c0.5,0.9,1.1,1.8,1.7,2.7c0.6,0.9,1.2,1.7,1.7,2.5L141.4,39   h4.5V6.3h-5L140.8,24.4L140.8,24.4z"/>
	<polygon class="st0" points="242.4,6.3 236.8,6.3 228.1,19.1 219.7,6.3 213.9,6.3 225,22.4 213.4,39 219,39 228.1,25.7 237.1,39    243,39 230.9,22.4  "/>
	<polygon class="st0" points="262.5,10.3 274.5,10.3 274.5,39 279.3,39 279.3,10.3 291.5,10.3 291.5,6.3 262.5,6.3  "/>
	<polygon class="st0" points="334.3,6.3 329.5,6.3 329.5,39 351.3,39 351.3,35 334.3,35  "/>
	<path class="st0" d="M432.8,24.8l-3.2,8.5h-0.1c-0.5-1.3-1-2.7-1.6-4.3s-1.1-3-1.6-4.2l-6.9-18.5h-5.1L427,39h4.7l13.1-32.8h-5.1   L432.8,24.8z"/>
	<polygon class="st0" points="515.2,35 515.2,6.3 510.4,6.3 510.4,39 532.2,39 532.2,35  "/>
	<rect x="172.4" y="6.3" class="st0" width="23.9" height="3.9"/>
	<rect x="168.9" y="20.6" class="st0" width="23.9" height="3.9"/>
	<rect x="165.4" y="34.8" class="st0" width="23.9" height="3.9"/>
	<rect x="375.4" y="6.3" class="st0" width="23.9" height="3.9"/>
	<rect x="371.9" y="20.6" class="st0" width="23.9" height="3.9"/>
	<rect x="368.4" y="34.8" class="st0" width="23.9" height="3.9"/>
	<rect x="466.6" y="6.3" class="st0" width="23.9" height="3.9"/>
	<rect x="463.1" y="20.6" class="st0" width="23.9" height="3.9"/>
	<rect x="459.7" y="34.8" class="st0" width="23.9" height="3.9"/>
	<rect class="st0" width="81.4" height="81.4"/>
	<rect x="32.2" y="24.5" class="st1" width="23.9" height="3.9"/>
	<rect x="28.7" y="38.7" class="st1" width="23.9" height="3.9"/>
	<rect x="25.2" y="53" class="st1" width="23.9" height="3.9"/>
	<g>
		<path class="st0" d="M131.4,75.3c-0.9,0.4-2.7,0.9-5,0.9c-5.3,0-9.3-3.4-9.3-9.5c0-5.9,4-9.9,9.9-9.9c2.4,0,3.8,0.5,4.5,0.8    l-0.6,2c-0.9-0.4-2.2-0.8-3.8-0.8c-4.4,0-7.4,2.8-7.4,7.8c0,4.6,2.7,7.6,7.3,7.6c1.5,0,3-0.3,4-0.8L131.4,75.3z"/>
		<path class="st0" d="M143.2,70l-2,5.9h-2.5l6.4-18.9h2.9l6.4,18.9h-2.6l-2-5.9H143.2z M149.4,68.1l-1.8-5.4    c-0.4-1.2-0.7-2.4-1-3.4h-0.1c-0.3,1.1-0.6,2.3-1,3.4l-1.8,5.5L149.4,68.1L149.4,68.1z"/>
		<path class="st0" d="M162.9,75.9V57h2.7l6,9.5c1.4,2.2,2.5,4.2,3.4,6.1h0.1c-0.2-2.5-0.3-4.8-0.3-7.8V57h2.3v18.9h-2.5l-6-9.6    c-1.3-2.1-2.6-4.3-3.5-6.3H165c0.1,2.4,0.2,4.6,0.2,7.8v8.1H162.9z"/>
		<path class="st0" d="M200.1,75.3c-0.9,0.4-2.7,0.9-5,0.9c-5.3,0-9.3-3.4-9.3-9.5c0-5.9,4-9.9,9.9-9.9c2.4,0,3.8,0.5,4.5,0.8    l-0.6,2c-0.9-0.4-2.2-0.8-3.8-0.8c-4.4,0-7.4,2.8-7.4,7.8c0,4.6,2.7,7.6,7.3,7.6c1.5,0,3-0.3,4-0.8L200.1,75.3z"/>
		<path class="st0" d="M218.6,67.1h-7.3v6.8h8.2v2h-10.6V57H219v2h-7.8v6h7.3v2.1H218.6z"/>
		<path class="st0" d="M228.2,57.3c1.2-0.3,3-0.4,4.7-0.4c2.6,0,4.3,0.5,5.5,1.5c1,0.8,1.5,2.1,1.5,3.6c0,2.5-1.6,4.1-3.6,4.8v0.1    c1.5,0.5,2.3,1.8,2.8,3.8c0.6,2.6,1.1,4.5,1.5,5.2h-2.5c-0.3-0.5-0.7-2.2-1.3-4.5c-0.6-2.6-1.6-3.6-3.8-3.7h-2.3v8.2h-2.4    L228.2,57.3L228.2,57.3z M230.6,65.9h2.5c2.6,0,4.3-1.4,4.3-3.6c0-2.4-1.8-3.5-4.3-3.5c-1.2,0-2,0.1-2.4,0.2v6.9H230.6z"/>
		<path class="st0" d="M273.5,75.3c-0.9,0.4-2.7,0.9-5,0.9c-5.3,0-9.3-3.4-9.3-9.5c0-5.9,4-9.9,9.9-9.9c2.4,0,3.8,0.5,4.5,0.8    l-0.6,2c-0.9-0.4-2.2-0.8-3.8-0.8c-4.4,0-7.4,2.8-7.4,7.8c0,4.6,2.7,7.6,7.3,7.6c1.5,0,3-0.3,4-0.8L273.5,75.3z"/>
		<path class="st0" d="M285.4,70l-2,5.9h-2.5l6.4-18.9h2.9l6.4,18.9H294l-2-5.9H285.4z M291.5,68.1l-1.8-5.4c-0.4-1.2-0.7-2.4-1-3.4    h-0.1c-0.3,1.1-0.6,2.3-1,3.4l-1.8,5.5L291.5,68.1L291.5,68.1z"/>
		<path class="st0" d="M305,57.3c1.2-0.3,3-0.4,4.7-0.4c2.6,0,4.3,0.5,5.5,1.5c1,0.8,1.5,2.1,1.5,3.6c0,2.5-1.6,4.1-3.6,4.8v0.1    c1.5,0.5,2.3,1.8,2.8,3.8c0.6,2.6,1.1,4.5,1.5,5.2h-2.5c-0.3-0.5-0.7-2.2-1.3-4.5c-0.6-2.6-1.6-3.6-3.8-3.7h-2.3v8.2H305V57.3z     M307.5,65.9h2.5c2.6,0,4.3-1.4,4.3-3.6c0-2.4-1.8-3.5-4.3-3.5c-1.2,0-2,0.1-2.4,0.2v6.9H307.5z"/>
		<path class="st0" d="M335.5,67.1h-7.3v6.8h8.2v2h-10.6V57H336v2h-7.8v6h7.3L335.5,67.1L335.5,67.1z"/>
	</g>
</g>
</svg>