<svg width="314" height="48" viewBox="0 0 314 48" fill="none" xmlns="http://www.w3.org/2000/svg">
<path d="M72.8181 33.492C73.4666 33.4852 74.1108 33.597 74.7191 33.8217C75.2865 34.0346 75.7999 34.3702 76.2227 34.8044C76.6653 35.27 77.0032 35.825 77.2134 36.432C77.4629 37.1654 77.5828 37.9365 77.5678 38.711C77.5817 39.4764 77.4562 40.2379 77.1973 40.9583C76.9757 41.5677 76.6301 42.1244 76.1824 42.5934C75.7538 43.0335 75.2342 43.3746 74.66 43.5928C73.43 44.0405 72.0819 44.0432 70.8501 43.6003C70.2827 43.3875 69.7693 43.0522 69.3465 42.6181C68.9032 42.1531 68.5653 41.5979 68.3558 40.9905C68.1057 40.2571 67.9858 39.4857 68.0013 38.711C67.9873 37.9458 68.1129 37.1844 68.3719 36.4642C68.5935 35.8547 68.9391 35.2978 69.3868 34.8286C69.8154 34.3887 70.335 34.0478 70.9091 33.8298C71.5192 33.6002 72.1664 33.4857 72.8181 33.492ZM69.6123 38.711C69.6002 39.3165 69.6844 39.9201 69.862 40.4992C70.0039 40.9598 70.2367 41.3872 70.5467 41.7563C70.8247 42.0803 71.1751 42.3341 71.5696 42.4973C71.966 42.6588 72.3902 42.7407 72.8181 42.7384C73.2419 42.7421 73.662 42.6601 74.0532 42.4973C74.4396 42.3319 74.7817 42.0781 75.052 41.7563C75.3565 41.386 75.5838 40.9586 75.7206 40.4992C75.8923 39.919 75.9738 39.3159 75.9622 38.711C75.9755 38.095 75.8912 37.4808 75.7125 36.8911C75.5716 36.4326 75.3386 36.0076 75.0279 35.6421C74.7489 35.3231 74.3983 35.0747 74.0049 34.9172C73.6073 34.7607 73.1836 34.6814 72.7564 34.6836C72.331 34.6809 71.9093 34.763 71.5159 34.9252C71.1279 35.0876 70.7851 35.3419 70.5171 35.6663C70.217 36.0381 69.9926 36.4652 69.8566 36.9234C69.6841 37.5032 69.6017 38.1061 69.6123 38.711Z" fill="#1D1D1B"/>
<path d="M84.7119 33.6372H86.0007L90.6252 40.0644C90.7964 40.3014 90.9627 40.5431 91.1241 40.7894C91.2856 41.0357 91.4306 41.2773 91.5591 41.5143H91.5918C91.5704 41.1388 91.5542 40.7629 91.5435 40.3866C91.5328 40.0104 91.5274 39.6345 91.5274 39.259V33.6372H92.9773V43.7863H91.6885L87.1128 37.4396C86.9517 37.2136 86.7852 36.959 86.6134 36.6739C86.4416 36.3887 86.2805 36.1079 86.1301 35.8287H86.0979C86.1194 36.279 86.1355 36.7301 86.1462 37.1819C86.1569 37.6337 86.1623 38.0847 86.1623 38.5351V43.7863H84.7124L84.7119 33.6372Z" fill="#1D1D1B"/>
<path d="M104.006 42.7067C104.825 42.7373 105.638 42.5657 106.375 42.2073L106.712 43.3989C106.321 43.587 105.907 43.7224 105.481 43.8017C104.941 43.8954 104.393 43.9385 103.845 43.9305C103.202 43.9348 102.562 43.8203 101.96 43.5928C101.381 43.3749 100.856 43.0339 100.422 42.5934C99.9692 42.1255 99.6181 41.5687 99.3911 40.9583C98.8892 39.5137 98.8863 37.9424 99.3831 36.4959C99.6061 35.8838 99.9535 35.3245 100.403 34.8533C100.841 34.4056 101.372 34.0592 101.958 33.8383C102.586 33.6024 103.253 33.485 103.924 33.492C104.476 33.4805 105.028 33.5346 105.567 33.6531C105.979 33.7546 106.378 33.9005 106.759 34.088L106.405 35.2485C106.2 35.162 106.01 35.0874 105.833 35.0149C105.66 34.9463 105.482 34.8898 105.301 34.8457C105.12 34.8023 104.937 34.7698 104.753 34.7485C104.542 34.7261 104.329 34.7154 104.117 34.7163C103.66 34.7143 103.207 34.7879 102.774 34.9343C102.354 35.0762 101.973 35.3154 101.663 35.6324C101.324 35.9897 101.066 36.4154 100.905 36.8809C100.704 37.4747 100.609 38.0992 100.624 38.726C100.608 39.3545 100.7 39.981 100.897 40.5781C101.05 41.0346 101.3 41.4525 101.63 41.803C101.931 42.1108 102.298 42.345 102.704 42.4871C103.122 42.6344 103.563 42.7087 104.006 42.7067Z" fill="#1D1D1B"/>
<path d="M117.56 33.492C118.208 33.4852 118.852 33.597 119.461 33.8217C120.028 34.0346 120.541 34.3702 120.964 34.8044C121.407 35.2698 121.745 35.8249 121.955 36.432C122.205 37.1653 122.325 37.9365 122.309 38.711C122.324 39.4764 122.198 40.238 121.939 40.9583C121.717 41.5677 121.372 42.1244 120.924 42.5934C120.495 43.0335 119.976 43.3746 119.402 43.5928C118.171 44.0412 116.822 44.0438 115.589 43.6003C115.021 43.3879 114.506 43.0525 114.083 42.6181C113.64 42.1528 113.302 41.5977 113.092 40.9905C112.842 40.2571 112.722 39.4857 112.738 38.711C112.723 37.9458 112.849 37.1844 113.108 36.4642C113.33 35.8548 113.675 35.2979 114.123 34.8286C114.553 34.3889 115.074 34.0486 115.649 33.8314C116.259 33.6011 116.907 33.486 117.56 33.492ZM114.354 38.711C114.342 39.3165 114.426 39.9201 114.604 40.4992C114.745 40.9598 114.978 41.3872 115.288 41.7563C115.566 42.0803 115.917 42.3341 116.311 42.4973C116.707 42.6588 117.132 42.7407 117.56 42.7384C117.983 42.7421 118.404 42.6601 118.795 42.4973C119.181 42.3321 119.523 42.0782 119.794 41.7563C120.098 41.3862 120.326 40.9587 120.462 40.4992C120.634 39.919 120.715 39.3159 120.704 38.711C120.717 38.095 120.633 37.4808 120.454 36.8911C120.313 36.4326 120.08 36.0076 119.769 35.6421C119.491 35.3229 119.14 35.0745 118.746 34.9172C118.349 34.7607 117.925 34.6814 117.498 34.6836C117.073 34.6809 116.651 34.7631 116.257 34.9252C115.869 35.0876 115.527 35.3419 115.259 35.6663C114.959 36.0383 114.734 36.4653 114.598 36.9234C114.426 37.5032 114.343 38.1061 114.354 38.711Z" fill="#1D1D1B"/>
<path d="M128.38 33.6372H129.862V42.5308H134.196V43.7869H128.38V33.6372Z" fill="#1D1D1B"/>
<path d="M144.329 33.492C144.977 33.4852 145.621 33.597 146.23 33.8217C146.798 34.0344 147.312 34.37 147.736 34.8044C148.179 35.27 148.516 35.825 148.727 36.432C148.976 37.1654 149.096 37.9365 149.081 38.711C149.095 39.4764 148.969 40.238 148.71 40.9583C148.489 41.5677 148.143 42.1245 147.696 42.5934C147.267 43.0335 146.747 43.3746 146.173 43.5928C144.943 44.0405 143.595 44.0432 142.363 43.6003C141.795 43.3878 141.28 43.0524 140.856 42.6181C140.413 42.1529 140.076 41.5978 139.866 40.9905C139.616 40.2571 139.496 39.4857 139.512 38.711C139.498 37.9458 139.623 37.1844 139.882 36.4642C140.104 35.8546 140.449 35.2977 140.897 34.8286C141.326 34.3886 141.845 34.0477 142.42 33.8298C143.03 33.6002 143.677 33.4857 144.329 33.492ZM141.123 38.711C141.111 39.3165 141.195 39.9201 141.373 40.4992C141.514 40.9598 141.747 41.3873 142.057 41.7563C142.334 42.0799 142.684 42.3338 143.077 42.4973C143.474 42.6589 143.898 42.7408 144.326 42.7384C144.749 42.7418 145.168 42.6598 145.558 42.4973C145.945 42.3319 146.287 42.0781 146.557 41.7563C146.862 41.386 147.089 40.9586 147.226 40.4992C147.397 39.919 147.479 39.3159 147.467 38.711C147.481 38.095 147.396 37.4808 147.218 36.8911C147.077 36.4326 146.844 36.0076 146.533 35.6421C146.255 35.3235 145.905 35.0751 145.513 34.9172C145.115 34.7607 144.691 34.6814 144.264 34.6836C143.839 34.6809 143.417 34.763 143.024 34.9252C142.636 35.0876 142.293 35.3419 142.025 35.6663C141.725 36.0381 141.5 36.4652 141.364 36.9234C141.193 37.5033 141.111 38.1062 141.123 38.711Z" fill="#1D1D1B"/>
<path d="M160.116 33.492C160.653 33.4877 161.189 33.5306 161.719 33.6203C162.182 33.7018 162.63 33.8541 163.048 34.0719L162.694 35.2313C162.319 35.057 161.928 34.922 161.525 34.8286C161.12 34.7404 160.705 34.6974 160.29 34.7002C159.831 34.6981 159.374 34.7688 158.937 34.9097C158.511 35.047 158.122 35.2813 157.802 35.5943C157.452 35.9446 157.185 36.3683 157.02 36.8348C156.811 37.4433 156.713 38.0844 156.73 38.7277C156.655 39.7906 156.97 40.8443 157.616 41.6918C157.931 42.0358 158.318 42.3053 158.75 42.4809C159.182 42.6564 159.647 42.7336 160.113 42.7068C160.466 42.7103 160.819 42.6887 161.169 42.6423C161.463 42.5994 161.753 42.5237 162.031 42.4168V39.5976H160.113V38.4377H163.415V43.3361C162.95 43.5192 162.471 43.6629 161.982 43.7657C161.366 43.8867 160.74 43.9432 160.113 43.9343C159.446 43.9398 158.783 43.8254 158.156 43.5965C157.562 43.3794 157.021 43.0388 156.569 42.5972C156.104 42.1358 155.741 41.5813 155.506 40.9701C155.235 40.2553 155.104 39.4955 155.119 38.7314C155.104 37.9629 155.232 37.1983 155.495 36.4761C155.722 35.8612 156.076 35.3013 156.534 34.8329C156.981 34.3883 157.52 34.0473 158.113 33.8341C158.755 33.6019 159.433 33.4861 160.116 33.492Z" fill="#1D1D1B"/>
<path d="M170.476 33.6372L173.005 38.1801L175.55 33.6372H177.113L173.682 39.5334V43.7858H172.199V39.5334L168.849 33.6372H170.476Z" fill="#1D1D1B"/>
<path d="M80.7267 13.7453C80.7267 14.3972 80.7369 15.0486 80.7573 15.6994C80.7777 16.3502 80.8078 17.002 80.8475 17.6546H80.7868C80.5466 17.2451 80.276 16.8262 79.9749 16.398C79.6738 15.9699 79.3629 15.5508 79.0421 15.1409L70.4068 4H68V21.5918H70.708V12.4882C70.708 11.7064 70.698 10.9247 70.678 10.1432C70.6579 9.36167 70.6277 8.57981 70.5872 7.7976H70.6474C70.928 8.28125 71.2289 8.76991 71.55 9.26358C71.8712 9.75725 72.1823 10.1994 72.4833 10.5899L81.0279 21.5918H83.4347V4H80.7267V13.7453Z" fill="#1D1D1B"/>
<path d="M135.369 4H132.363L127.661 10.8692L123.168 4H120.044L126.025 12.6558L119.776 21.5918H122.782L127.661 14.4434L132.512 21.5918H135.666L129.209 12.6558L135.369 4Z" fill="#1D1D1B"/>
<path d="M146.14 6.1775H152.603V21.5918H155.172V6.1775H161.747V4H146.14V6.1775Z" fill="#1D1D1B"/>
<path d="M184.693 4H182.124V21.5918H193.815V19.4132H184.693V4Z" fill="#1D1D1B"/>
<path d="M237.58 13.9402L235.874 18.5197H235.818C235.552 17.8123 235.263 17.0446 234.951 16.2165C234.639 15.3885 234.35 14.6297 234.084 13.9402L230.36 4H227.603L234.511 21.5918H237.04L244.09 4H241.361L237.58 13.9402Z" fill="#1D1D1B"/>
<path d="M281.864 19.4132V4H279.295V21.5918H290.986V19.4132H281.864Z" fill="#1D1D1B"/>
<path d="M110.626 4.02148H97.7767V6.12058H110.626V4.02148Z" fill="#1D1D1B"/>
<path d="M108.754 11.6726H95.9048V13.7717H108.754V11.6726Z" fill="#1D1D1B"/>
<path d="M106.881 19.3235H94.0322V21.4226H106.881V19.3235Z" fill="#1D1D1B"/>
<path d="M219.633 4.02148H206.784V6.12058H219.633V4.02148Z" fill="#1D1D1B"/>
<path d="M217.761 11.6726H204.912V13.7717H217.761V11.6726Z" fill="#1D1D1B"/>
<path d="M215.889 19.3235H203.04V21.4226H215.889V19.3235Z" fill="#1D1D1B"/>
<path d="M268.625 4.02148H255.776V6.12058H268.625V4.02148Z" fill="#1D1D1B"/>
<path d="M266.753 11.6726H253.903V13.7717H266.753V11.6726Z" fill="#1D1D1B"/>
<path d="M264.88 19.3235H252.031V21.4226H264.88V19.3235Z" fill="#1D1D1B"/>
<path d="M48 0H0V48H48V0Z" fill="#1D1D1B"/>
<path d="M33.1156 14.4407H18.9988V16.7469H33.1156V14.4407Z" fill="white"/>
<path d="M31.0585 22.8472H16.9417V25.1534H31.0585V22.8472Z" fill="white"/>
<path d="M29.0011 31.2532H14.8843V33.5594H29.0011V31.2532Z" fill="white"/>
</svg>
